<svg width="1200" height="360" viewBox="0 0 1200 360" fill="none" xmlns="http://www.w3.org/2000/svg">
  <defs>
    <linearGradient id="bg" x1="48" y1="32" x2="1146" y2="332" gradientUnits="userSpaceOnUse">
      <stop offset="0" stop-color="#071018"/>
      <stop offset="0.45" stop-color="#050505"/>
      <stop offset="1" stop-color="#0B0612"/>
    </linearGradient>
    <radialGradient id="cyanOrb" cx="0" cy="0" r="1" gradientUnits="userSpaceOnUse" gradientTransform="translate(198 124) rotate(18) scale(292 176)">
      <stop offset="0" stop-color="#00FFFF" stop-opacity="0.30"/>
      <stop offset="1" stop-color="#00FFFF" stop-opacity="0"/>
    </radialGradient>
    <radialGradient id="purpleOrb" cx="0" cy="0" r="1" gradientUnits="userSpaceOnUse" gradientTransform="translate(1010 150) rotate(-16) scale(316 196)">
      <stop offset="0" stop-color="#7C3AED" stop-opacity="0.32"/>
      <stop offset="1" stop-color="#7C3AED" stop-opacity="0"/>
    </radialGradient>
    <linearGradient id="glassLeft" x1="82" y1="96" x2="614" y2="304" gradientUnits="userSpaceOnUse">
      <stop offset="0" stop-color="#101A24" stop-opacity="0.86"/>
      <stop offset="1" stop-color="#090C13" stop-opacity="0.46"/>
    </linearGradient>
    <linearGradient id="glassRight" x1="724" y1="94" x2="1120" y2="302" gradientUnits="userSpaceOnUse">
      <stop offset="0" stop-color="#0E1620" stop-opacity="0.80"/>
      <stop offset="1" stop-color="#0B0914" stop-opacity="0.42"/>
    </linearGradient>
    <linearGradient id="cyanStroke" x1="0" y1="0" x2="1" y2="1">
      <stop offset="0" stop-color="#A7FFFF"/>
      <stop offset="1" stop-color="#00FFFF"/>
    </linearGradient>
    <linearGradient id="purpleStroke" x1="0" y1="0" x2="1" y2="1">
      <stop offset="0" stop-color="#C4B5FD"/>
      <stop offset="1" stop-color="#7C3AED"/>
    </linearGradient>
    <linearGradient id="pythonTop" x1="-32" y1="-34" x2="26" y2="20" gradientUnits="userSpaceOnUse">
      <stop offset="0" stop-color="#9EFBFF"/>
      <stop offset="1" stop-color="#00FFFF"/>
    </linearGradient>
    <linearGradient id="pythonBottom" x1="-26" y1="32" x2="30" y2="-14" gradientUnits="userSpaceOnUse">
      <stop offset="0" stop-color="#C4B5FD"/>
      <stop offset="1" stop-color="#7C3AED"/>
    </linearGradient>
    <filter id="panelShadow" x="16" y="18" width="1168" height="332" filterUnits="userSpaceOnUse" color-interpolation-filters="sRGB">
      <feDropShadow dx="0" dy="18" stdDeviation="24" flood-color="#000000" flood-opacity="0.42"/>
    </filter>
    <filter id="softBlur" x="-140" y="-120" width="1500" height="640" filterUnits="userSpaceOnUse" color-interpolation-filters="sRGB">
      <feGaussianBlur stdDeviation="52"/>
    </filter>
    <filter id="cyanGlow" x="-70" y="-70" width="260" height="260" filterUnits="userSpaceOnUse" color-interpolation-filters="sRGB">
      <feDropShadow dx="0" dy="0" stdDeviation="5" flood-color="#00FFFF" flood-opacity="0.95"/>
      <feDropShadow dx="0" dy="0" stdDeviation="18" flood-color="#00FFFF" flood-opacity="0.30"/>
    </filter>
    <filter id="purpleGlow" x="-70" y="-70" width="260" height="260" filterUnits="userSpaceOnUse" color-interpolation-filters="sRGB">
      <feDropShadow dx="0" dy="0" stdDeviation="5" flood-color="#A78BFA" flood-opacity="0.95"/>
      <feDropShadow dx="0" dy="0" stdDeviation="18" flood-color="#7C3AED" flood-opacity="0.32"/>
    </filter>
    <pattern id="grid" width="28" height="28" patternUnits="userSpaceOnUse">
      <path d="M28 0H0V28" stroke="rgba(255,255,255,0.06)" stroke-width="1"/>
    </pattern>
    <style>
      .sans { font-family: 'Segoe UI', 'Helvetica Neue', Arial, sans-serif; }
      .mono { font-family: Consolas, 'SFMono-Regular', Menlo, monospace; }
    </style>
  </defs>

  <rect width="1200" height="360" fill="url(#bg)"/>
  <rect width="1200" height="360" fill="url(#grid)" opacity="0.24"/>

  <g filter="url(#softBlur)">
    <ellipse cx="198" cy="124" rx="188" ry="126" fill="url(#cyanOrb)">
      <animate attributeName="cx" values="198;182;198" dur="10s" repeatCount="indefinite"/>
    </ellipse>
    <ellipse cx="1010" cy="150" rx="210" ry="136" fill="url(#purpleOrb)">
      <animate attributeName="cx" values="1010;1028;1010" dur="12s" repeatCount="indefinite"/>
    </ellipse>
  </g>

  <g filter="url(#panelShadow)">
    <rect x="34" y="28" width="1132" height="304" rx="28" fill="rgba(7,10,15,0.52)" stroke="rgba(255,255,255,0.08)" stroke-width="1.2"/>
    <rect x="34.5" y="28.5" width="1131" height="303" rx="27.5" stroke="rgba(0,255,255,0.08)" stroke-width="1"/>
  </g>

  <line x1="34" y1="82" x2="1166" y2="82" stroke="rgba(255,255,255,0.06)"/>

  <g transform="translate(58 52)">
    <circle cx="12" cy="12" r="4.5" fill="#FF5F57"/>
    <circle cx="30" cy="12" r="4.5" fill="#FEBB2E"/>
    <circle cx="48" cy="12" r="4.5" fill="#28C840"/>
  </g>

  <g transform="translate(76 96)">
    <rect x="0" y="0" width="556" height="208" rx="26" fill="url(#glassLeft)" stroke="rgba(255,255,255,0.08)"/>
    <rect x="0.5" y="0.5" width="555" height="207" rx="25.5" stroke="rgba(0,255,255,0.14)"/>

    <path d="M24 24H92" stroke="url(#cyanStroke)" stroke-width="2.2" stroke-linecap="round"/>
    <path d="M466 24H526" stroke="rgba(255,255,255,0.16)" stroke-width="2.2" stroke-linecap="round"/>
    <path d="M486 38H526" stroke="rgba(255,255,255,0.10)" stroke-width="2.2" stroke-linecap="round"/>

    <text x="28" y="58" class="mono" font-size="24" font-weight="600" fill="#00FFFF">$ whoami</text>
    <text x="28" y="112" class="sans" font-size="58" font-weight="700" fill="#F5FCFF">Gabriel S.</text>
    <text x="30" y="150" class="sans" font-size="22" font-weight="500" fill="#D9F8FF">Fullstack Developer &#8226; Automation &#8226; Data &#8226; Security</text>

    <g transform="translate(28 170)">
      <rect x="0" y="0" width="214" height="52" rx="16" fill="rgba(5,5,5,0.34)" stroke="rgba(124,58,237,0.34)"/>
      <rect x="1" y="1" width="212" height="50" rx="15" stroke="rgba(0,255,255,0.14)"/>
      <text x="18" y="34" class="mono" font-size="24" font-weight="600" fill="#EAFBFF">RukamDev_</text>
      <rect x="165" y="14" width="10" height="22" rx="2" fill="#00FFFF" filter="url(#cyanGlow)">
        <animate attributeName="opacity" values="1;1;0;0;1" dur="1.1s" repeatCount="indefinite"/>
      </rect>
    </g>

    <g opacity="0.22">
      <path d="M292 182H504" stroke="rgba(255,255,255,0.12)" stroke-width="1.4" stroke-linecap="round"/>
      <path d="M292 198H472" stroke="rgba(255,255,255,0.08)" stroke-width="1.4" stroke-linecap="round"/>
      <path d="M292 214H438" stroke="rgba(255,255,255,0.06)" stroke-width="1.4" stroke-linecap="round"/>
      <rect x="292" y="173" width="48" height="5" rx="2.5" fill="#00FFFF"/>
      <rect x="348" y="173" width="24" height="5" rx="2.5" fill="#7C3AED"/>
      <rect x="378" y="173" width="16" height="5" rx="2.5" fill="#EAFBFF" opacity="0.65"/>
    </g>
  </g>

  <g transform="translate(700 96)">
    <rect x="0" y="0" width="424" height="208" rx="28" fill="url(#glassRight)" stroke="rgba(255,255,255,0.08)"/>
    <rect x="0.5" y="0.5" width="423" height="207" rx="27.5" stroke="rgba(124,58,237,0.20)"/>
    <rect x="1.5" y="1.5" width="421" height="205" rx="26.5" stroke="rgba(0,255,255,0.12)"/>

    <path d="M20 28H60" stroke="#00FFFF" stroke-width="1.6" stroke-linecap="round"/>
    <path d="M20 28V68" stroke="#00FFFF" stroke-width="1.6" stroke-linecap="round"/>
    <path d="M404 28H364" stroke="#7C3AED" stroke-width="1.6" stroke-linecap="round"/>
    <path d="M404 28V68" stroke="#7C3AED" stroke-width="1.6" stroke-linecap="round"/>
    <path d="M20 180H60" stroke="#7C3AED" stroke-width="1.6" stroke-linecap="round"/>
    <path d="M20 180V140" stroke="#7C3AED" stroke-width="1.6" stroke-linecap="round"/>
    <path d="M404 180H364" stroke="#00FFFF" stroke-width="1.6" stroke-linecap="round"/>
    <path d="M404 180V140" stroke="#00FFFF" stroke-width="1.6" stroke-linecap="round"/>

    <g transform="translate(52 46)">
      <rect x="0" y="0" width="132" height="132" rx="24" fill="rgba(8,12,18,0.44)" stroke="rgba(0,255,255,0.26)"/>
      <rect x="1" y="1" width="130" height="130" rx="23" stroke="rgba(255,255,255,0.06)"/>
      <g transform="translate(66 66)" filter="url(#cyanGlow)">
        <animateTransform attributeName="transform" type="translate" values="66 66;66 61;66 66" dur="4s" repeatCount="indefinite"/>
        <animate attributeName="opacity" values="0.88;1;0.88" dur="4s" repeatCount="indefinite"/>
        <g fill="none" stroke="url(#cyanStroke)" stroke-width="4" stroke-linecap="round" stroke-linejoin="round">
          <path d="M-10 -34C-18 -25 -2 -18 -8 -8C-11 -3 -15 -1 -18 2"/>
          <path d="M8 -40C0 -30 15 -24 8 -12C4 -6 0 -3 -4 2"/>
          <path d="M26 -32C18 -24 32 -18 24 -8C20 -2 15 2 8 6"/>
          <path d="M-22 4H18C25 4 30 10 30 17V20C30 32 20 42 8 42H-6C-19 42 -28 31 -28 18V4H-22Z" fill="rgba(0,255,255,0.05)"/>
          <path d="M30 12H34C43 12 48 17 48 26C48 35 43 40 34 40H28"/>
          <path d="M-34 50C-12 58 26 58 48 50"/>
        </g>
      </g>
    </g>

    <g transform="translate(238 46)">
      <rect x="0" y="0" width="132" height="132" rx="24" fill="rgba(12,8,18,0.44)" stroke="rgba(124,58,237,0.28)"/>
      <rect x="1" y="1" width="130" height="130" rx="23" stroke="rgba(255,255,255,0.06)"/>
      <g transform="translate(66 66)" filter="url(#purpleGlow)">
        <animateTransform attributeName="transform" type="translate" values="66 66;66 62;66 66" dur="4.8s" repeatCount="indefinite"/>
        <animate attributeName="opacity" values="0.84;1;0.84" dur="4.8s" repeatCount="indefinite"/>
        <path d="M-14 -38H16C29 -38 38 -29 38 -16V-4C38 9 29 18 16 18H4C-4 18 -10 24 -10 32V42H-22V30C-22 15 -10 4 5 4H16C22 4 26 0 26 -6V-14C26 -20 22 -24 16 -24H-14C-20 -24 -24 -20 -24 -14V-4C-24 2 -20 6 -14 6H-4V18H-14C-27 18 -36 9 -36 -4V-16C-36 -29 -27 -38 -14 -38Z" fill="url(#pythonTop)"/>
        <path d="M14 38H-16C-29 38 -38 29 -38 16V4C-38 -9 -29 -18 -16 -18H-4C4 -18 10 -24 10 -32V-42H22V-30C22 -15 10 -4 -5 -4H-16C-22 -4 -26 0 -26 6V14C-26 20 -22 24 -16 24H14C20 24 24 20 24 14V4C24 -2 20 -6 14 -6H4V-18H14C27 -18 36 -9 36 4V16C36 29 27 38 14 38Z" fill="url(#pythonBottom)"/>
        <circle cx="8" cy="-22" r="4" fill="#050505"/>
        <circle cx="-8" cy="22" r="4" fill="#050505"/>
        <circle cx="8" cy="-22" r="1.8" fill="#F5FCFF"/>
        <circle cx="-8" cy="22" r="1.8" fill="#F5FCFF"/>
      </g>
    </g>
  </g>
</svg>
