<svg width="1200" height="150" viewBox="0 0 1200 150" fill="none" xmlns="http://www.w3.org/2000/svg">
  <defs>
    <linearGradient id="footerBg" x1="0" y1="0" x2="1200" y2="150" gradientUnits="userSpaceOnUse">
      <stop offset="0" stop-color="#050505"/>
      <stop offset="0.48" stop-color="#070B10"/>
      <stop offset="1" stop-color="#090513"/>
    </linearGradient>
    <linearGradient id="cyanWave" x1="118" y1="36" x2="1084" y2="132" gradientUnits="userSpaceOnUse">
      <stop offset="0" stop-color="#00FFFF" stop-opacity="0.14"/>
      <stop offset="1" stop-color="#00FFFF" stop-opacity="0.58"/>
    </linearGradient>
    <linearGradient id="purpleWave" x1="1092" y1="24" x2="140" y2="126" gradientUnits="userSpaceOnUse">
      <stop offset="0" stop-color="#7C3AED" stop-opacity="0.12"/>
      <stop offset="1" stop-color="#7C3AED" stop-opacity="0.56"/>
    </linearGradient>
    <linearGradient id="topLine" x1="0" y1="18" x2="1200" y2="18" gradientUnits="userSpaceOnUse">
      <stop offset="0" stop-color="#00FFFF" stop-opacity="0"/>
      <stop offset="0.22" stop-color="#00FFFF" stop-opacity="0.82"/>
      <stop offset="0.8" stop-color="#7C3AED" stop-opacity="0.82"/>
      <stop offset="1" stop-color="#7C3AED" stop-opacity="0"/>
    </linearGradient>
    <radialGradient id="cyanAura" cx="0" cy="0" r="1" gradientUnits="userSpaceOnUse" gradientTransform="translate(266 102) rotate(6) scale(246 96)">
      <stop offset="0" stop-color="#00FFFF" stop-opacity="0.24"/>
      <stop offset="1" stop-color="#00FFFF" stop-opacity="0"/>
    </radialGradient>
    <radialGradient id="purpleAura" cx="0" cy="0" r="1" gradientUnits="userSpaceOnUse" gradientTransform="translate(942 84) rotate(-8) scale(264 98)">
      <stop offset="0" stop-color="#7C3AED" stop-opacity="0.24"/>
      <stop offset="1" stop-color="#7C3AED" stop-opacity="0"/>
    </radialGradient>
    <filter id="blur" x="-120" y="-120" width="1440" height="360" filterUnits="userSpaceOnUse" color-interpolation-filters="sRGB">
      <feGaussianBlur stdDeviation="34"/>
    </filter>
    <filter id="glow" x="-20" y="-20" width="1240" height="90" filterUnits="userSpaceOnUse" color-interpolation-filters="sRGB">
      <feDropShadow dx="0" dy="0" stdDeviation="7" flood-color="#00FFFF" flood-opacity="0.34"/>
      <feDropShadow dx="0" dy="0" stdDeviation="12" flood-color="#7C3AED" flood-opacity="0.24"/>
    </filter>
    <pattern id="grid" width="28" height="28" patternUnits="userSpaceOnUse">
      <path d="M28 0H0V28" stroke="rgba(255,255,255,0.05)" stroke-width="1"/>
    </pattern>
  </defs>

  <rect width="1200" height="150" fill="url(#footerBg)"/>
  <rect width="1200" height="150" fill="url(#grid)" opacity="0.22"/>

  <g filter="url(#blur)">
    <ellipse cx="266" cy="102" rx="212" ry="74" fill="url(#cyanAura)">
      <animate attributeName="cx" values="266;248;266" dur="12s" repeatCount="indefinite"/>
    </ellipse>
    <ellipse cx="942" cy="84" rx="228" ry="78" fill="url(#purpleAura)">
      <animate attributeName="cx" values="942;960;942" dur="14s" repeatCount="indefinite"/>
    </ellipse>
  </g>

  <g filter="url(#glow)">
    <line x1="42" y1="18" x2="1158" y2="18" stroke="url(#topLine)" stroke-width="2.2" stroke-linecap="round"/>
  </g>

  <path d="M0 96C138 60 280 52 446 74C612 96 740 132 904 124C1024 118 1122 94 1200 82V150H0V96Z" fill="url(#purpleWave)" opacity="0.60">
    <animate attributeName="d" dur="12s" repeatCount="indefinite" values="M0 96C138 60 280 52 446 74C612 96 740 132 904 124C1024 118 1122 94 1200 82V150H0V96Z;M0 90C144 56 292 62 458 84C624 106 752 124 912 114C1030 106 1126 90 1200 76V150H0V90Z;M0 96C138 60 280 52 446 74C612 96 740 132 904 124C1024 118 1122 94 1200 82V150H0V96Z"/>
  </path>

  <path d="M0 88C150 118 298 132 470 106C638 80 782 54 946 70C1040 80 1126 100 1200 116V150H0V88Z" fill="url(#cyanWave)" opacity="0.70">
    <animate attributeName="d" dur="10s" repeatCount="indefinite" values="M0 88C150 118 298 132 470 106C638 80 782 54 946 70C1040 80 1126 100 1200 116V150H0V88Z;M0 94C156 124 308 122 478 98C642 74 776 62 938 78C1036 88 1122 106 1200 120V150H0V94Z;M0 88C150 118 298 132 470 106C638 80 782 54 946 70C1040 80 1126 100 1200 116V150H0V88Z"/>
  </path>

  <path d="M0 108C130 82 254 72 420 88C588 104 730 128 888 120C1018 114 1112 96 1200 88" stroke="#00FFFF" stroke-opacity="0.54" stroke-width="2.4" stroke-linecap="round">
    <animate attributeName="d" dur="9s" repeatCount="indefinite" values="M0 108C130 82 254 72 420 88C588 104 730 128 888 120C1018 114 1112 96 1200 88;M0 102C136 76 264 82 430 96C596 110 738 124 896 114C1022 106 1116 92 1200 82;M0 108C130 82 254 72 420 88C588 104 730 128 888 120C1018 114 1112 96 1200 88"/>
  </path>
</svg>
