<svg xmlns="http://www.w3.org/2000/svg" width="460" height="280" viewBox="0 0 460 280" fill="none" role="img" aria-labelledby="title desc">
  <title id="title">Custom stats card</title>
  <desc id="desc">Local terminal style stats card for RukamDev with summary metrics and a simplified contribution heatmap.</desc>
  <rect width="460" height="280" rx="10" fill="#0d0d0d"/>
  <rect x="1" y="1" width="458" height="278" rx="9" stroke="#1e1e1e"/>
  <text x="24" y="28" fill="#7a5af8" font-family="'JetBrains Mono','Courier New',monospace" font-size="14" letter-spacing="2">&gt;_ LOCAL SNAPSHOT</text>

  <rect x="24" y="44" width="188" height="50" rx="8" fill="#111" stroke="#222"/>
  <rect x="248" y="44" width="188" height="50" rx="8" fill="#111" stroke="#222"/>
  <rect x="24" y="108" width="188" height="50" rx="8" fill="#111" stroke="#222"/>
  <rect x="248" y="108" width="188" height="50" rx="8" fill="#111" stroke="#222"/>

  <text x="40" y="66" fill="#888" font-family="'JetBrains Mono','Courier New',monospace" font-size="11">TOTAL COMMITS</text>
  <text x="40" y="86" fill="#98c379" font-family="'JetBrains Mono','Courier New',monospace" font-size="24" font-weight="700">230+</text>

  <text x="264" y="66" fill="#888" font-family="'JetBrains Mono','Courier New',monospace" font-size="11">LONGEST STREAK</text>
  <text x="264" y="86" fill="#7a5af8" font-family="'JetBrains Mono','Courier New',monospace" font-size="24" font-weight="700">23 days</text>

  <text x="40" y="130" fill="#888" font-family="'JetBrains Mono','Courier New',monospace" font-size="11">REPOS</text>
  <text x="40" y="150" fill="#e5a550" font-family="'JetBrains Mono','Courier New',monospace" font-size="24" font-weight="700">19</text>

  <text x="264" y="130" fill="#888" font-family="'JetBrains Mono','Courier New',monospace" font-size="11">FOLLOWERS</text>
  <text x="264" y="150" fill="#98c379" font-family="'JetBrains Mono','Courier New',monospace" font-size="24" font-weight="700">12</text>

  <text x="24" y="176" fill="#888" font-family="'JetBrains Mono','Courier New',monospace" font-size="11">MAY</text>
  <text x="140" y="176" fill="#888" font-family="'JetBrains Mono','Courier New',monospace" font-size="11">JUN</text>
  <text x="208" y="176" fill="#888" font-family="'JetBrains Mono','Courier New',monospace" font-size="11">JUL</text>
  <text x="274" y="176" fill="#888" font-family="'JetBrains Mono','Courier New',monospace" font-size="11">AUG</text>
  <text x="340" y="176" fill="#888" font-family="'JetBrains Mono','Courier New',monospace" font-size="11">SEP</text>
  <text x="408" y="176" fill="#888" font-family="'JetBrains Mono','Courier New',monospace" font-size="11">OCT</text>

  <text x="24" y="194" fill="#444" font-family="'JetBrains Mono','Courier New',monospace" font-size="10">MON</text>
  <text x="24" y="208" fill="#444" font-family="'JetBrains Mono','Courier New',monospace" font-size="10">WED</text>
  <text x="24" y="222" fill="#444" font-family="'JetBrains Mono','Courier New',monospace" font-size="10">FRI</text>

  <rect x="72" y="184" width="10" height="10" rx="2" fill="#1a1a1a"/><rect x="86" y="184" width="10" height="10" rx="2" fill="#0f2d1a"/><rect x="100" y="184" width="10" height="10" rx="2" fill="#1b4d2f"/><rect x="114" y="184" width="10" height="10" rx="2" fill="#238636"/><rect x="128" y="184" width="10" height="10" rx="2" fill="#0f2d1a"/><rect x="142" y="184" width="10" height="10" rx="2" fill="#1a1a1a"/><rect x="156" y="184" width="10" height="10" rx="2" fill="#1b4d2f"/><rect x="170" y="184" width="10" height="10" rx="2" fill="#238636"/><rect x="184" y="184" width="10" height="10" rx="2" fill="#1b4d2f"/><rect x="198" y="184" width="10" height="10" rx="2" fill="#0f2d1a"/><rect x="212" y="184" width="10" height="10" rx="2" fill="#1a1a1a"/><rect x="226" y="184" width="10" height="10" rx="2" fill="#1b4d2f"/><rect x="240" y="184" width="10" height="10" rx="2" fill="#238636"/><rect x="254" y="184" width="10" height="10" rx="2" fill="#238636"/><rect x="268" y="184" width="10" height="10" rx="2" fill="#1b4d2f"/><rect x="282" y="184" width="10" height="10" rx="2" fill="#0f2d1a"/><rect x="296" y="184" width="10" height="10" rx="2" fill="#1a1a1a"/><rect x="310" y="184" width="10" height="10" rx="2" fill="#0f2d1a"/><rect x="324" y="184" width="10" height="10" rx="2" fill="#1b4d2f"/><rect x="338" y="184" width="10" height="10" rx="2" fill="#238636"/><rect x="352" y="184" width="10" height="10" rx="2" fill="#1b4d2f"/><rect x="366" y="184" width="10" height="10" rx="2" fill="#0f2d1a"/><rect x="380" y="184" width="10" height="10" rx="2" fill="#1b4d2f"/><rect x="394" y="184" width="10" height="10" rx="2" fill="#238636"/><rect x="72" y="198" width="10" height="10" rx="2" fill="#0f2d1a"/><rect x="86" y="198" width="10" height="10" rx="2" fill="#1a1a1a"/><rect x="100" y="198" width="10" height="10" rx="2" fill="#0f2d1a"/><rect x="114" y="198" width="10" height="10" rx="2" fill="#1b4d2f"/><rect x="128" y="198" width="10" height="10" rx="2" fill="#238636"/><rect x="142" y="198" width="10" height="10" rx="2" fill="#1b4d2f"/><rect x="156" y="198" width="10" height="10" rx="2" fill="#0f2d1a"/><rect x="170" y="198" width="10" height="10" rx="2" fill="#1a1a1a"/><rect x="184" y="198" width="10" height="10" rx="2" fill="#0f2d1a"/><rect x="198" y="198" width="10" height="10" rx="2" fill="#1b4d2f"/><rect x="212" y="198" width="10" height="10" rx="2" fill="#1b4d2f"/><rect x="226" y="198" width="10" height="10" rx="2" fill="#238636"/><rect x="240" y="198" width="10" height="10" rx="2" fill="#0f2d1a"/><rect x="254" y="198" width="10" height="10" rx="2" fill="#1a1a1a"/><rect x="268" y="198" width="10" height="10" rx="2" fill="#0f2d1a"/><rect x="282" y="198" width="10" height="10" rx="2" fill="#1b4d2f"/><rect x="296" y="198" width="10" height="10" rx="2" fill="#238636"/><rect x="310" y="198" width="10" height="10" rx="2" fill="#1b4d2f"/><rect x="324" y="198" width="10" height="10" rx="2" fill="#0f2d1a"/><rect x="338" y="198" width="10" height="10" rx="2" fill="#1a1a1a"/><rect x="352" y="198" width="10" height="10" rx="2" fill="#0f2d1a"/><rect x="366" y="198" width="10" height="10" rx="2" fill="#1b4d2f"/><rect x="380" y="198" width="10" height="10" rx="2" fill="#1b4d2f"/><rect x="394" y="198" width="10" height="10" rx="2" fill="#238636"/><rect x="72" y="212" width="10" height="10" rx="2" fill="#1a1a1a"/><rect x="86" y="212" width="10" height="10" rx="2" fill="#0f2d1a"/><rect x="100" y="212" width="10" height="10" rx="2" fill="#1b4d2f"/><rect x="114" y="212" width="10" height="10" rx="2" fill="#1b4d2f"/><rect x="128" y="212" width="10" height="10" rx="2" fill="#238636"/><rect x="142" y="212" width="10" height="10" rx="2" fill="#0f2d1a"/><rect x="156" y="212" width="10" height="10" rx="2" fill="#1a1a1a"/><rect x="170" y="212" width="10" height="10" rx="2" fill="#0f2d1a"/><rect x="184" y="212" width="10" height="10" rx="2" fill="#1b4d2f"/><rect x="198" y="212" width="10" height="10" rx="2" fill="#238636"/><rect x="212" y="212" width="10" height="10" rx="2" fill="#1b4d2f"/><rect x="226" y="212" width="10" height="10" rx="2" fill="#0f2d1a"/><rect x="240" y="212" width="10" height="10" rx="2" fill="#1a1a1a"/><rect x="254" y="212" width="10" height="10" rx="2" fill="#0f2d1a"/><rect x="268" y="212" width="10" height="10" rx="2" fill="#1b4d2f"/><rect x="282" y="212" width="10" height="10" rx="2" fill="#238636"/><rect x="296" y="212" width="10" height="10" rx="2" fill="#238636"/><rect x="310" y="212" width="10" height="10" rx="2" fill="#1b4d2f"/><rect x="324" y="212" width="10" height="10" rx="2" fill="#0f2d1a"/><rect x="338" y="212" width="10" height="10" rx="2" fill="#1a1a1a"/><rect x="352" y="212" width="10" height="10" rx="2" fill="#0f2d1a"/><rect x="366" y="212" width="10" height="10" rx="2" fill="#1b4d2f"/><rect x="380" y="212" width="10" height="10" rx="2" fill="#238636"/><rect x="394" y="212" width="10" height="10" rx="2" fill="#1b4d2f"/>
</svg>
